<?xml version="1.0" encoding="UTF-8" standalone="no"?><!-- Generator: Gravit.io --><svg xmlns="http://www.w3.org/2000/svg" xmlns:xlink="http://www.w3.org/1999/xlink" style="isolation:isolate" viewBox="0 0 128 128" width="128pt" height="128pt"><defs><clipPath id="_clipPath_5xkZmrpxXcS9pAcOTgP3E2il53E55Y0a"><rect width="128" height="128"/></clipPath></defs><g clip-path="url(#_clipPath_5xkZmrpxXcS9pAcOTgP3E2il53E55Y0a)"><path d=" M 65.377 111.027 L 65.377 111.027 Q 52.3 111.027 41.612 104.866 L 41.612 104.866 L 41.612 104.866 Q 30.924 98.704 24.826 87.954 L 24.826 87.954 L 24.826 87.954 Q 18.728 77.203 18.728 64 L 18.728 64 L 18.728 64 Q 18.728 50.797 24.826 40.046 L 24.826 40.046 L 24.826 40.046 Q 30.924 29.296 41.612 23.134 L 41.612 23.134 L 41.612 23.134 Q 52.3 16.973 65.377 16.973 L 65.377 16.973 L 65.377 16.973 Q 75.437 16.973 83.798 20.808 L 83.798 20.808 L 83.798 20.808 Q 92.16 24.643 98.322 31.685 L 98.322 31.685 L 90.651 39.103 L 90.651 39.103 Q 85.496 32.942 79.398 30.05 L 79.398 30.05 L 79.398 30.05 Q 73.299 27.158 65.377 27.158 L 65.377 27.158 L 65.377 27.158 Q 55.57 27.158 47.396 31.747 L 47.396 31.747 L 47.396 31.747 Q 39.223 36.337 34.382 44.699 L 34.382 44.699 L 34.382 44.699 Q 29.541 53.061 29.541 64 L 29.541 64 L 29.541 64 Q 29.541 74.939 34.382 83.301 L 34.382 83.301 L 34.382 83.301 Q 39.223 91.663 47.396 96.253 L 47.396 96.253 L 47.396 96.253 Q 55.57 100.842 65.377 100.842 L 65.377 100.842 L 65.377 100.842 Q 81.724 100.842 93.166 87.388 L 93.166 87.388 L 100.962 94.932 L 100.962 94.932 Q 94.675 102.351 85.496 106.689 L 85.496 106.689 L 85.496 106.689 Q 76.317 111.027 65.377 111.027 L 65.377 111.027 Z  M 94.253 84.149 L 94.253 84.149 Q 88.157 84.149 84.067 81.287 L 84.067 81.287 L 84.067 81.287 Q 79.978 78.424 78.268 73.963 L 78.268 73.963 L 83.919 71.435 L 83.919 71.435 Q 85.331 74.855 88.119 76.714 L 88.119 76.714 L 88.119 76.714 Q 90.908 78.573 94.253 78.573 L 94.253 78.573 L 94.253 78.573 Q 97.822 78.573 100.35 77.123 L 100.35 77.123 L 100.35 77.123 Q 102.878 75.673 102.878 72.997 L 102.878 72.997 L 102.878 72.997 Q 102.878 70.617 100.871 69.167 L 100.871 69.167 L 100.871 69.167 Q 98.863 67.718 94.551 66.677 L 94.551 66.677 L 89.941 65.487 L 89.941 65.487 Q 85.406 64.372 82.506 61.695 L 82.506 61.695 L 82.506 61.695 Q 79.606 59.018 79.606 54.78 L 79.606 54.78 L 79.606 54.78 Q 79.606 51.509 81.576 49.018 L 81.576 49.018 L 81.576 49.018 Q 83.547 46.527 86.818 45.189 L 86.818 45.189 L 86.818 45.189 Q 90.09 43.851 93.882 43.851 L 93.882 43.851 L 93.882 43.851 Q 98.863 43.851 102.767 46.007 L 102.767 46.007 L 102.767 46.007 Q 106.67 48.163 108.306 52.029 L 108.306 52.029 L 102.804 54.557 L 102.804 54.557 Q 100.276 49.501 93.807 49.501 L 93.807 49.501 L 93.807 49.501 Q 90.685 49.501 88.342 50.951 L 88.342 50.951 L 88.342 50.951 Q 86 52.401 86 54.632 L 86 54.632 L 86 54.632 Q 86 56.714 87.636 58.015 L 87.636 58.015 L 87.636 58.015 Q 89.272 59.316 92.543 60.134 L 92.543 60.134 L 98.045 61.546 L 98.045 61.546 Q 103.622 62.959 106.447 65.747 L 106.447 65.747 L 106.447 65.747 Q 109.272 68.535 109.272 72.55 L 109.272 72.55 L 109.272 72.55 Q 109.272 76.045 107.265 78.684 L 107.265 78.684 L 107.265 78.684 Q 105.257 81.324 101.837 82.737 L 101.837 82.737 L 101.837 82.737 Q 98.417 84.149 94.253 84.149 L 94.253 84.149 Z  M 57.598 84.149 L 57.598 84.149 Q 51.501 84.149 47.412 81.287 L 47.412 81.287 L 47.412 81.287 Q 43.322 78.424 41.612 73.963 L 41.612 73.963 L 47.263 71.435 L 47.263 71.435 Q 48.676 74.855 51.464 76.714 L 51.464 76.714 L 51.464 76.714 Q 54.252 78.573 57.598 78.573 L 57.598 78.573 L 57.598 78.573 Q 61.167 78.573 63.695 77.123 L 63.695 77.123 L 63.695 77.123 Q 66.223 75.673 66.223 72.997 L 66.223 72.997 L 66.223 72.997 Q 66.223 70.617 64.215 69.167 L 64.215 69.167 L 64.215 69.167 Q 62.208 67.718 57.895 66.677 L 57.895 66.677 L 53.286 65.487 L 53.286 65.487 Q 48.75 64.372 45.85 61.695 L 45.85 61.695 L 45.85 61.695 Q 42.951 59.018 42.951 54.78 L 42.951 54.78 L 42.951 54.78 Q 42.951 51.509 44.921 49.018 L 44.921 49.018 L 44.921 49.018 Q 46.891 46.527 50.163 45.189 L 50.163 45.189 L 50.163 45.189 Q 53.434 43.851 57.226 43.851 L 57.226 43.851 L 57.226 43.851 Q 62.208 43.851 66.111 46.007 L 66.111 46.007 L 66.111 46.007 Q 70.015 48.163 71.65 52.029 L 71.65 52.029 L 66.148 54.557 L 66.148 54.557 Q 63.621 49.501 57.152 49.501 L 57.152 49.501 L 57.152 49.501 Q 54.029 49.501 51.687 50.951 L 51.687 50.951 L 51.687 50.951 Q 49.345 52.401 49.345 54.632 L 49.345 54.632 L 49.345 54.632 Q 49.345 56.714 50.981 58.015 L 50.981 58.015 L 50.981 58.015 Q 52.616 59.316 55.888 60.134 L 55.888 60.134 L 61.39 61.546 L 61.39 61.546 Q 66.966 62.959 69.792 65.747 L 69.792 65.747 L 69.792 65.747 Q 72.617 68.535 72.617 72.55 L 72.617 72.55 L 72.617 72.55 Q 72.617 76.045 70.61 78.684 L 70.61 78.684 L 70.61 78.684 Q 68.602 81.324 65.182 82.737 L 65.182 82.737 L 65.182 82.737 Q 61.762 84.149 57.598 84.149 L 57.598 84.149 Z " fill-rule="evenodd" fill="rgb(0,0,255)"/></g></svg>