<?xml version="1.0" encoding="UTF-8" standalone="no"?><svg xmlns="http://www.w3.org/2000/svg" xmlns:xlink="http://www.w3.org/1999/xlink" style="isolation:isolate" viewBox="0 0 128 128" width="128pt" height="128pt"><defs><clipPath id="_clipPath_xfETEwLQXMmOUWfzhJfDEsLw3nDvKdfT"><rect width="128" height="128"/></clipPath></defs><g clip-path="url(#_clipPath_xfETEwLQXMmOUWfzhJfDEsLw3nDvKdfT)"><path d=" M 8.737 32.355 L 83.913 32.355 L 83.913 29.283 C 83.913 25.892 86.666 23.139 90.057 23.139 L 109.471 23.139 C 112.873 23.139 115.634 25.9 115.634 29.302 L 115.634 98.698 C 115.634 102.1 112.873 104.861 109.471 104.861 L 8.737 104.861 C 5.335 104.861 2.574 102.1 2.574 98.698 L 2.574 38.518 C 2.574 35.117 5.335 32.355 8.737 32.355 Z " fill="rgb(95,103,255)"/><path d=" M 19.266 35.217 L 94.442 35.217 L 94.442 32.145 C 94.442 28.753 97.195 26 100.586 26 L 120 26 C 123.401 26 125.797 28.737 125.347 32.109 L 116.45 98.753 C 116 102.124 112.873 104.861 109.471 104.861 L 8.737 104.861 C 5.335 104.861 2.987 102.131 3.495 98.768 L 12.181 41.311 C 12.69 37.947 15.864 35.217 19.266 35.217 Z " fill="rgb(118,125,255)"/></g></svg>