<?xml version="1.0" encoding="UTF-8" standalone="no"?><!-- Generator: Gravit.io --><svg xmlns="http://www.w3.org/2000/svg" xmlns:xlink="http://www.w3.org/1999/xlink" style="isolation:isolate" viewBox="0 0 128 128" width="128pt" height="128pt"><defs><clipPath id="_clipPath_EHkSCESWOex6gHpORMVg6o4FaepSNUK3"><rect width="128" height="128"/></clipPath></defs><g clip-path="url(#_clipPath_EHkSCESWOex6gHpORMVg6o4FaepSNUK3)"><path d=" M 12.575 7.846 L 115.425 7.846 L 101.239 104.785 L 63.409 120.154 L 25.579 104.785 L 12.575 7.846 Z  M 51.654 80.491 L 25.233 59.992 L 25.233 53.085 L 51.654 32.586 L 51.654 41.276 L 31.442 56.316 L 31.442 56.761 L 51.654 71.802 L 51.654 80.491 Z  M 76.346 80.046 L 76.346 71.356 L 96.558 56.316 L 96.558 55.87 L 76.346 40.83 L 76.346 32.14 L 102.767 52.639 L 102.767 59.547 L 76.346 80.046 Z  M 67.198 32.586 L 73.594 32.586 L 60.802 80.491 L 54.406 80.491 L 67.198 32.586 Z " fill-rule="evenodd" fill="rgb(255,81,0)"/></g></svg>