<?xml version="1.0" encoding="UTF-8" standalone="no"?><!-- Generator: Gravit.io --><svg xmlns="http://www.w3.org/2000/svg" xmlns:xlink="http://www.w3.org/1999/xlink" style="isolation:isolate" viewBox="0 0 128 128" width="128pt" height="128pt"><defs><clipPath id="_clipPath_oYRTryZjVDVOpHvgvA4ji7VxDogoIhAu"><rect width="128" height="128"/></clipPath></defs><g clip-path="url(#_clipPath_oYRTryZjVDVOpHvgvA4ji7VxDogoIhAu)"><rect x="0" y="0" width="128" height="128" transform="matrix(1,0,0,1,0,0)" fill="rgb(255,238,0)"/><path d=" M 56.5 127 L 56.5 127 Q 49.529 127 44.324 123.162 L 44.324 123.162 L 44.324 123.162 Q 39.118 119.324 37 112.353 L 37 112.353 L 44.059 109.441 L 44.059 109.441 Q 47.235 119.853 56.5 119.853 L 56.5 119.853 L 56.5 119.853 Q 61.706 119.853 64.838 116.235 L 64.838 116.235 L 64.838 116.235 Q 67.971 112.618 67.971 106.706 L 67.971 106.706 L 67.971 62.412 L 75.471 62.412 L 75.471 106.088 L 75.471 106.088 Q 75.471 112.706 73.044 117.426 L 73.044 117.426 L 73.044 117.426 Q 70.618 122.147 66.338 124.574 L 66.338 124.574 L 66.338 124.574 Q 62.059 127 56.5 127 L 56.5 127 Z  M 106.176 127 L 106.176 127 Q 98.765 127 92.588 122.5 L 92.588 122.5 L 92.588 122.5 Q 86.412 118 84.118 109.882 L 84.118 109.882 L 91.265 106.971 L 91.265 106.971 Q 92.765 112.618 96.824 116.235 L 96.824 116.235 L 96.824 116.235 Q 100.882 119.853 106.353 119.853 L 106.353 119.853 L 106.353 119.853 Q 111.824 119.853 115.618 116.897 L 115.618 116.897 L 115.618 116.897 Q 119.412 113.941 119.412 108.824 L 119.412 108.824 L 119.412 108.824 Q 119.412 104.412 116.191 101.544 L 116.191 101.544 L 116.191 101.544 Q 112.971 98.676 105.647 96.206 L 105.647 96.206 L 101.676 94.794 L 101.676 94.794 Q 94.971 92.412 90.735 88.529 L 90.735 88.529 L 90.735 88.529 Q 86.5 84.647 86.5 77.765 L 86.5 77.765 L 86.5 77.765 Q 86.5 73.265 88.971 69.426 L 88.971 69.426 L 88.971 69.426 Q 91.441 65.588 95.853 63.294 L 95.853 63.294 L 95.853 63.294 Q 100.265 61 105.735 61 L 105.735 61 L 105.735 61 Q 111.206 61 115.265 63.029 L 115.265 63.029 L 115.265 63.029 Q 119.324 65.059 121.75 67.971 L 121.75 67.971 L 121.75 67.971 Q 124.176 70.882 125.147 73.706 L 125.147 73.706 L 118.088 76.706 L 118.088 76.706 Q 117.206 73.441 114.074 70.794 L 114.074 70.794 L 114.074 70.794 Q 110.941 68.147 105.824 68.147 L 105.824 68.147 L 105.824 68.147 Q 100.971 68.147 97.529 70.882 L 97.529 70.882 L 97.529 70.882 Q 94.088 73.618 94.088 77.765 L 94.088 77.765 L 94.088 77.765 Q 94.088 81.471 97 83.809 L 97 83.809 L 97 83.809 Q 99.912 86.147 105.824 88.176 L 105.824 88.176 L 109.971 89.588 L 109.971 89.588 Q 118 92.5 122.5 96.868 L 122.5 96.868 L 122.5 96.868 Q 127 101.235 127 108.735 L 127 108.735 L 127 108.735 Q 127 114.824 123.868 118.971 L 123.868 118.971 L 123.868 118.971 Q 120.735 123.118 115.971 125.059 L 115.971 125.059 L 115.971 125.059 Q 111.206 127 106.176 127 L 106.176 127 Z " fill="rgb(0,0,0)"/></g></svg>