<?xml version="1.0" encoding="UTF-8" standalone="no"?><!-- Generator: Gravit.io --><svg xmlns="http://www.w3.org/2000/svg" xmlns:xlink="http://www.w3.org/1999/xlink" style="isolation:isolate" viewBox="0 0 128 128" width="128pt" height="128pt"><defs><clipPath id="_clipPath_AusxVfn8KDRY73uJ4eihhz5LhZoW954A"><rect width="128" height="128"/></clipPath></defs><g clip-path="url(#_clipPath_AusxVfn8KDRY73uJ4eihhz5LhZoW954A)"><circle vector-effect="non-scaling-stroke" cx="64" cy="64" r="64" fill="rgb(255,255,255)"/><path d=" M 30.596 101.315 L 30.596 101.315 Q 24.485 101.315 20.9 97.689 L 20.9 97.689 L 20.9 97.689 Q 17.316 94.064 17.316 88.035 L 17.316 88.035 L 17.316 73.777 L 17.316 73.777 Q 17.316 70.436 15.645 68.644 L 15.645 68.644 L 15.645 68.644 Q 13.975 66.852 11.286 66.852 L 11.286 66.852 L 11.286 61.148 L 11.286 61.148 Q 13.975 61.148 15.645 59.356 L 15.645 59.356 L 15.645 59.356 Q 17.316 57.564 17.316 54.223 L 17.316 54.223 L 17.316 39.965 L 17.316 39.965 Q 17.316 33.936 20.9 30.311 L 20.9 30.311 L 20.9 30.311 Q 24.485 26.685 30.596 26.685 L 30.596 26.685 L 32.388 26.685 L 32.388 32.388 L 30.677 32.388 L 30.677 32.388 Q 27.581 32.388 25.626 34.506 L 25.626 34.506 L 25.626 34.506 Q 23.67 36.625 23.67 40.21 L 23.67 40.21 L 23.67 54.468 L 23.67 54.468 Q 23.67 58.297 22.285 60.578 L 22.285 60.578 L 22.285 60.578 Q 20.9 62.859 18.13 63.837 L 18.13 63.837 L 18.13 64.163 L 18.13 64.163 Q 20.9 65.141 22.285 67.381 L 22.285 67.381 L 22.285 67.381 Q 23.67 69.622 23.67 73.532 L 23.67 73.532 L 23.67 87.79 L 23.67 87.79 Q 23.67 91.375 25.626 93.494 L 25.626 93.494 L 25.626 93.494 Q 27.581 95.612 30.677 95.612 L 30.677 95.612 L 32.388 95.612 L 32.388 101.315 L 30.596 101.315 Z  M 44.609 91.701 L 44.609 91.701 Q 42.409 91.701 40.902 90.194 L 40.902 90.194 L 40.902 90.194 Q 39.395 88.687 39.395 86.487 L 39.395 86.487 L 39.395 86.487 Q 39.395 84.368 40.902 82.861 L 40.902 82.861 L 40.902 82.861 Q 42.409 81.354 44.609 81.354 L 44.609 81.354 L 44.609 81.354 Q 46.728 81.354 48.235 82.861 L 48.235 82.861 L 48.235 82.861 Q 49.742 84.368 49.742 86.487 L 49.742 86.487 L 49.742 86.487 Q 49.742 88.687 48.235 90.194 L 48.235 90.194 L 48.235 90.194 Q 46.728 91.701 44.609 91.701 L 44.609 91.701 Z  M 64 91.701 L 64 91.701 Q 61.8 91.701 60.293 90.194 L 60.293 90.194 L 60.293 90.194 Q 58.786 88.687 58.786 86.487 L 58.786 86.487 L 58.786 86.487 Q 58.786 84.368 60.293 82.861 L 60.293 82.861 L 60.293 82.861 Q 61.8 81.354 64 81.354 L 64 81.354 L 64 81.354 Q 66.118 81.354 67.626 82.861 L 67.626 82.861 L 67.626 82.861 Q 69.133 84.368 69.133 86.487 L 69.133 86.487 L 69.133 86.487 Q 69.133 88.687 67.626 90.194 L 67.626 90.194 L 67.626 90.194 Q 66.118 91.701 64 91.701 L 64 91.701 Z  M 83.391 91.701 L 83.391 91.701 Q 81.191 91.701 79.684 90.194 L 79.684 90.194 L 79.684 90.194 Q 78.176 88.687 78.176 86.487 L 78.176 86.487 L 78.176 86.487 Q 78.176 84.368 79.684 82.861 L 79.684 82.861 L 79.684 82.861 Q 81.191 81.354 83.391 81.354 L 83.391 81.354 L 83.391 81.354 Q 85.509 81.354 87.016 82.861 L 87.016 82.861 L 87.016 82.861 Q 88.524 84.368 88.524 86.487 L 88.524 86.487 L 88.524 86.487 Q 88.524 88.687 87.016 90.194 L 87.016 90.194 L 87.016 90.194 Q 85.509 91.701 83.391 91.701 L 83.391 91.701 Z  M 95.612 101.315 L 95.612 95.612 L 97.323 95.612 L 97.323 95.612 Q 100.419 95.612 102.415 93.494 L 102.415 93.494 L 102.415 93.494 Q 104.411 91.375 104.411 87.79 L 104.411 87.79 L 104.411 73.532 L 104.411 73.532 Q 104.411 69.622 105.755 67.381 L 105.755 67.381 L 105.755 67.381 Q 107.1 65.141 109.87 64.163 L 109.87 64.163 L 109.87 63.837 L 109.87 63.837 Q 107.1 62.859 105.755 60.578 L 105.755 60.578 L 105.755 60.578 Q 104.411 58.297 104.411 54.468 L 104.411 54.468 L 104.411 40.21 L 104.411 40.21 Q 104.411 36.625 102.415 34.506 L 102.415 34.506 L 102.415 34.506 Q 100.419 32.388 97.323 32.388 L 97.323 32.388 L 95.612 32.388 L 95.612 26.685 L 97.404 26.685 L 97.404 26.685 Q 103.515 26.685 107.1 30.311 L 107.1 30.311 L 107.1 30.311 Q 110.684 33.936 110.684 39.965 L 110.684 39.965 L 110.684 54.223 L 110.684 54.223 Q 110.684 57.564 112.355 59.356 L 112.355 59.356 L 112.355 59.356 Q 114.025 61.148 116.714 61.148 L 116.714 61.148 L 116.714 66.852 L 116.714 66.852 Q 114.025 66.852 112.355 68.644 L 112.355 68.644 L 112.355 68.644 Q 110.684 70.436 110.684 73.777 L 110.684 73.777 L 110.684 88.035 L 110.684 88.035 Q 110.684 94.064 107.1 97.689 L 107.1 97.689 L 107.1 97.689 Q 103.515 101.315 97.404 101.315 L 97.404 101.315 L 95.612 101.315 Z " fill="rgb(255,111,0)"/></g></svg>