<?xml version="1.0" encoding="UTF-8" standalone="no"?><!-- Generator: Gravit.io --><svg xmlns="http://www.w3.org/2000/svg" xmlns:xlink="http://www.w3.org/1999/xlink" style="isolation:isolate" viewBox="0 0 128 128" width="128pt" height="128pt"><defs><clipPath id="_clipPath_KviPQzKL7fIfaOmB3Pw0SCHOoILfWYq4"><rect width="128" height="128"/></clipPath></defs><g clip-path="url(#_clipPath_KviPQzKL7fIfaOmB3Pw0SCHOoILfWYq4)"><circle vector-effect="non-scaling-stroke" cx="64" cy="64" r="64" fill="rgb(0,0,255)"/><path d=" M 64 37.061 L 64 37.061 Q 61.211 37.061 59.203 35.053 L 59.203 35.053 L 59.203 35.053 Q 57.196 33.045 57.196 30.256 L 57.196 30.256 L 57.196 30.256 Q 57.196 27.468 59.203 25.516 L 59.203 25.516 L 59.203 25.516 Q 61.211 23.564 64 23.564 L 64 23.564 L 64 23.564 Q 66.789 23.564 68.797 25.516 L 68.797 25.516 L 68.797 25.516 Q 70.804 27.468 70.804 30.256 L 70.804 30.256 L 70.804 30.256 Q 70.804 33.045 68.852 35.053 L 68.852 35.053 L 68.852 35.053 Q 66.9 37.061 64 37.061 L 64 37.061 Z  M 59.315 104.436 L 59.315 47.547 L 68.685 47.547 L 68.685 104.436 L 59.315 104.436 Z " fill="rgb(255,255,255)"/></g></svg>